<?xml version="1.0" encoding="UTF-8" standalone="no"?>
<!-- Generator: Adobe Illustrator 16.2.1, SVG Export Plug-In . SVG Version: 6.00 Build 0)  -->

<svg
   xmlns:dc="http://purl.org/dc/elements/1.1/"
   xmlns:cc="http://creativecommons.org/ns#"
   xmlns:rdf="http://www.w3.org/1999/02/22-rdf-syntax-ns#"
   xmlns:svg="http://www.w3.org/2000/svg"
   xmlns="http://www.w3.org/2000/svg"
   xmlns:sodipodi="http://sodipodi.sourceforge.net/DTD/sodipodi-0.dtd"
   xmlns:inkscape="http://www.inkscape.org/namespaces/inkscape"
   version="1.1"
   id="Layer_1"
   x="0px"
   y="0px"
   width="256"
   height="414.02646"
   viewBox="0 0 256 414.02646"
   xml:space="preserve"
   inkscape:version="0.91 r13725"
   sodipodi:docname="question.svg"><metadata
     id="metadata11"><rdf:RDF><cc:Work
         rdf:about=""><dc:format>image/svg+xml</dc:format><dc:type
           rdf:resource="http://purl.org/dc/dcmitype/StillImage" /><dc:title></dc:title></cc:Work></rdf:RDF></metadata><defs
     id="defs9" /><sodipodi:namedview
     pagecolor="#ffffff"
     bordercolor="#666666"
     borderopacity="1"
     objecttolerance="10"
     gridtolerance="10"
     guidetolerance="10"
     inkscape:pageopacity="0"
     inkscape:pageshadow="2"
     inkscape:window-width="1366"
     inkscape:window-height="744"
     id="namedview7"
     showgrid="false"
     fit-margin-top="0"
     fit-margin-left="0"
     fit-margin-right="0"
     fit-margin-bottom="0"
     inkscape:zoom="0.4609375"
     inkscape:cx="128"
     inkscape:cy="207.02645"
     inkscape:window-x="0"
     inkscape:window-y="24"
     inkscape:window-maximized="1"
     inkscape:current-layer="Layer_1" /><g
     id="g3"
     transform="translate(-128,-49)"
     style="fill:#4d4d4d"><path
       d="M 345.1,77.1 C 317.6,56.2 286.6,49 247.3,49 217.5,49 192,55.1 171.8,68.7 142,89 128,123.1 128,177 l 76.8,0 c 0,-14.4 -1.4,-29.9 7,-43.2 8.4,-13.3 20.1,-23.5 40.2,-23.5 20.4,0 30.9,5.9 40.8,18.1 8.4,10.4 11.6,22.8 11.6,36 0,11.4 -5.8,21.9 -12.7,31.4 -3.8,5.6 -8.8,10.6 -15.1,15.4 0,0 -41.5,24.7 -56.1,48.1 -10.9,17.4 -14.8,39.2 -15.7,65.3 -0.1,1.9 0.6,5.8 7.2,5.8 6.5,0 56,0 61.8,0 5.8,0 7,-4.4 7.1,-6.2 0.4,-9.5 1.6,-24.1 3.3,-29.6 3.3,-10.4 9.7,-19.5 19.7,-27.3 L 324.6,253 c 18.7,-14.6 33.6,-26.5 40.2,-35.9 11.3,-15.4 19.2,-34.4 19.2,-56.9 0,-36.7 -13.5,-63.8 -38.9,-83.1 z M 242,370.2 c -25.9,-0.8 -47.3,17.2 -48.2,45.3 -0.8,28.2 19.5,46.7 45.5,47.5 27,0.8 47.9,-16.6 48.7,-44.7 0.8,-28.1 -19,-47.3 -46,-48.1 z"
       id="path5"
       inkscape:connector-curvature="0"
       style="fill:#4d4d4d" /></g></svg>