<?xml version="1.0" encoding="UTF-8" standalone="no"?>
<!-- Generator: Adobe Illustrator 16.2.1, SVG Export Plug-In . SVG Version: 6.00 Build 0)  -->

<svg
   xmlns:dc="http://purl.org/dc/elements/1.1/"
   xmlns:cc="http://creativecommons.org/ns#"
   xmlns:rdf="http://www.w3.org/1999/02/22-rdf-syntax-ns#"
   xmlns:svg="http://www.w3.org/2000/svg"
   xmlns="http://www.w3.org/2000/svg"
   xmlns:sodipodi="http://sodipodi.sourceforge.net/DTD/sodipodi-0.dtd"
   xmlns:inkscape="http://www.inkscape.org/namespaces/inkscape"
   version="1.1"
   id="Layer_1"
   x="0px"
   y="0px"
   width="267.29999"
   height="320"
   viewBox="0 0 267.29999 320"
   xml:space="preserve"
   inkscape:version="0.91 r13725"
   sodipodi:docname="flag.svg"><metadata
     id="metadata11"><rdf:RDF><cc:Work
         rdf:about=""><dc:format>image/svg+xml</dc:format><dc:type
           rdf:resource="http://purl.org/dc/dcmitype/StillImage" /><dc:title></dc:title></cc:Work></rdf:RDF></metadata><defs
     id="defs9" /><sodipodi:namedview
     pagecolor="#ffffff"
     bordercolor="#666666"
     borderopacity="1"
     objecttolerance="10"
     gridtolerance="10"
     guidetolerance="10"
     inkscape:pageopacity="0"
     inkscape:pageshadow="2"
     inkscape:window-width="1366"
     inkscape:window-height="744"
     id="namedview7"
     showgrid="false"
     fit-margin-top="0"
     fit-margin-left="11"
     fit-margin-right="0.3"
     fit-margin-bottom="0"
     inkscape:zoom="1"
     inkscape:cx="-106.79921"
     inkscape:cy="170.14657"
     inkscape:window-x="0"
     inkscape:window-y="24"
     inkscape:window-maximized="1"
     inkscape:current-layer="Layer_1" /><g
     id="g3"
     transform="matrix(1.0390625,0,0,1,-132.10391,-96)"
     style="fill:#ff8080"><path
       d="m 368,112 c -11,1.4 -24.9,3.5 -39.7,3.5 -23.1,0 -44,-5.7 -65.2,-10.2 -21.5,-4.6 -43.7,-9.3 -67.2,-9.3 -46.9,0 -62.8,10.1 -64.4,11.2 l -3.4,2.4 0,2.6 0,161.7 0,142.1 16,0 0,-143.3 c 6,-2.5 21.8,-6.9 51.9,-6.9 21.8,0 42.2,8.3 63.9,13 22,4.7 44.8,9.6 69.5,9.6 14.7,0 27.7,-2 38.7,-3.3 6,-0.7 11.3,-1.4 16,-2.2 l 0,-156.9 0,-16.5 c -4.7,0.9 -10.1,1.7 -16.1,2.5 z"
       id="path5"
       inkscape:connector-curvature="0"
       style="fill:#ff8080" /></g></svg>